<?xml version="1.0" encoding="utf-8"?>
<!-- Generated by Mocodo 4.1.2 -->
<svg width="730" height="136" viewBox="0 0 730 136" xmlns="http://www.w3.org/2000/svg">
<rect x="0" y="0" width="730" height="136" fill="#ffffbf" stroke="none" stroke-width="0"/>

<!-- Association TO_MAKE -->
<g>
	<line x1="43" y1="68" x2="144" y2="68" stroke="#66bd63" stroke-width="2"/>
	<line x1="238" y1="68" x2="144" y2="68" stroke="#66bd63" stroke-width="2"/>
	<g>
		<path d="M165 43 a14 14 90 0 1 14 14 V68 h-70 V57 a14 14 90 0 1 14 -14" fill="#a6d96a" stroke="#a6d96a" stroke-width="0"/>
		<path d="M179 68 v11 a14 14 90 0 1 -14 14 H123 a14 14 90 0 1 -14 -14 V68 H70" fill="#d9ef8b" stroke="#d9ef8b" stroke-width="0"/>
		<rect x="109" y="43" width="70" height="50" fill="none" rx="14" stroke="#66bd63" stroke-width="2"/>
		<line x1="109" y1="68" x2="179" y2="68" stroke="#66bd63" stroke-width="1"/>
		<text x="116" y="60.75" fill="#000000" font-family="Verdana" font-size="12">TO MAKE</text>
	</g>
	<text x="82" y="85" fill="#d73027" font-family="Verdana" font-size="12">0,N</text>
	<text x="185" y="85" fill="#d73027" font-family="Verdana" font-size="12">1,1</text>
</g>

<!-- Association TO_PARTICIPATE -->
<g>
	<line x1="483" y1="68" x2="355" y2="68" stroke="#66bd63" stroke-width="2"/>
	<line x1="238" y1="68" x2="355" y2="68" stroke="#66bd63" stroke-width="2"/>
	<g>
		<path d="M399 43 a14 14 90 0 1 14 14 V68 h-116 V57 a14 14 90 0 1 14 -14" fill="#a6d96a" stroke="#a6d96a" stroke-width="0"/>
		<path d="M413 68 v11 a14 14 90 0 1 -14 14 H311 a14 14 90 0 1 -14 -14 V68 H116" fill="#d9ef8b" stroke="#d9ef8b" stroke-width="0"/>
		<rect x="297" y="43" width="116" height="50" fill="none" rx="14" stroke="#66bd63" stroke-width="2"/>
		<line x1="297" y1="68" x2="413" y2="68" stroke="#66bd63" stroke-width="1"/>
		<text x="304" y="60.75" fill="#000000" font-family="Verdana" font-size="12">TO PARTICIPATE</text>
	</g>
	<text x="418" y="85" fill="#d73027" font-family="Verdana" font-size="12">0,N</text>
	<text x="270" y="85" fill="#d73027" font-family="Verdana" font-size="12">0,N</text>
</g>

<!-- Association TO_HAVE -->
<g>
	<line x1="483" y1="68" x2="588" y2="68" stroke="#66bd63" stroke-width="2"/>
	<line x1="688" y1="68" x2="588" y2="68" stroke="#66bd63" stroke-width="2"/>
	<g>
		<path d="M609 43 a14 14 90 0 1 14 14 V68 h-70 V57 a14 14 90 0 1 14 -14" fill="#a6d96a" stroke="#a6d96a" stroke-width="0"/>
		<path d="M623 68 v11 a14 14 90 0 1 -14 14 H567 a14 14 90 0 1 -14 -14 V68 H70" fill="#d9ef8b" stroke="#d9ef8b" stroke-width="0"/>
		<rect x="553" y="43" width="70" height="50" fill="none" rx="14" stroke="#66bd63" stroke-width="2"/>
		<line x1="553" y1="68" x2="623" y2="68" stroke="#66bd63" stroke-width="1"/>
		<text x="561" y="60.75" fill="#000000" font-family="Verdana" font-size="12">TO HAVE</text>
	</g>
	<text x="526" y="85" fill="#d73027" font-family="Verdana" font-size="12">0,1</text>
	<text x="629" y="85" fill="#d73027" font-family="Verdana" font-size="12">1,1</text>
</g>

<!-- Entity USER -->
<g>
	<g>
		<rect x="9" y="9" width="68" height="25" fill="#fdae61" stroke="none" stroke-width="0" opacity="1"/>
		<rect x="9" y="34" width="68" height="93" fill="#fee08b" stroke="none" stroke-width="0" opacity="1"/>
		<rect x="9" y="9" width="68" height="118" fill="none" stroke="#f46d43" stroke-width="2" opacity="1"/>
		<line x1="9" y1="34" x2="77" y2="34" stroke="#f46d43" stroke-width="1"/>
	</g>
	<text x="29" y="26.75" fill="#000000" font-family="Verdana" font-size="12">User</text>
	<text x="14" y="51.8" fill="#000000" font-family="Verdana" font-size="12">id</text>
	<line x1="14" y1="54" x2="26" y2="54" stroke="#000000" stroke-width="1"/>
	<text x="14" y="68.8" fill="#000000" font-family="Verdana" font-size="12">firstname</text>
	<text x="14" y="85.8" fill="#000000" font-family="Verdana" font-size="12">lastname</text>
	<text x="14" y="102.8" fill="#000000" font-family="Verdana" font-size="12">email</text>
	<text x="14" y="119.8" fill="#000000" font-family="Verdana" font-size="12">password</text>
</g>

<!-- Entity DRAW -->
<g>
	<g>
		<rect x="211" y="34" width="54" height="25" fill="#fdae61" stroke="none" stroke-width="0" opacity="1"/>
		<rect x="211" y="59" width="54" height="43" fill="#fee08b" stroke="none" stroke-width="0" opacity="1"/>
		<rect x="211" y="34" width="54" height="68" fill="none" stroke="#f46d43" stroke-width="2" opacity="1"/>
		<line x1="211" y1="59" x2="265" y2="59" stroke="#f46d43" stroke-width="1"/>
	</g>
	<text x="222" y="51.75" fill="#000000" font-family="Verdana" font-size="12">Draw</text>
	<text x="216" y="76.8" fill="#000000" font-family="Verdana" font-size="12">id</text>
	<line x1="216" y1="79" x2="228" y2="79" stroke="#000000" stroke-width="1"/>
	<text x="216" y="93.8" fill="#000000" font-family="Verdana" font-size="12">budget</text>
</g>

<!-- Entity PARTICIPANT -->
<g>
	<g>
		<rect x="445" y="26" width="76" height="25" fill="#fdae61" stroke="none" stroke-width="0" opacity="1"/>
		<rect x="445" y="51" width="76" height="59" fill="#fee08b" stroke="none" stroke-width="0" opacity="1"/>
		<rect x="445" y="26" width="76" height="84" fill="none" stroke="#f46d43" stroke-width="2" opacity="1"/>
		<line x1="445" y1="51" x2="521" y2="51" stroke="#f46d43" stroke-width="1"/>
	</g>
	<text x="451" y="43.75" fill="#000000" font-family="Verdana" font-size="12">Participant</text>
	<text x="450" y="68.8" fill="#000000" font-family="Verdana" font-size="12">id</text>
	<line x1="450" y1="71" x2="462" y2="71" stroke="#000000" stroke-width="1"/>
	<text x="450" y="85.8" fill="#000000" font-family="Verdana" font-size="12">firtname</text>
	<text x="450" y="102.8" fill="#000000" font-family="Verdana" font-size="12">lastname</text>
</g>

<!-- Entity WHISHLIST -->
<g>
	<g>
		<rect x="655" y="34" width="66" height="25" fill="#fdae61" stroke="none" stroke-width="0" opacity="1"/>
		<rect x="655" y="59" width="66" height="43" fill="#fee08b" stroke="none" stroke-width="0" opacity="1"/>
		<rect x="655" y="34" width="66" height="68" fill="none" stroke="#f46d43" stroke-width="2" opacity="1"/>
		<line x1="655" y1="59" x2="721" y2="59" stroke="#f46d43" stroke-width="1"/>
	</g>
	<text x="661" y="51.75" fill="#000000" font-family="Verdana" font-size="12">Whishlist</text>
	<text x="660" y="76.8" fill="#000000" font-family="Verdana" font-size="12">id</text>
	<line x1="660" y1="79" x2="672" y2="79" stroke="#000000" stroke-width="1"/>
	<text x="660" y="93.8" fill="#000000" font-family="Verdana" font-size="12">itemList</text>
</g>
</svg>